<svg width="200" height="200" viewBox="0 0 200 200" fill="none" xmlns="http://www.w3.org/2000/svg">
<path d="M186.862 89.8444C186.862 83.5584 185.677 77.5444 183.525 72.0104L200 62.4995L196.267 56.0335L192.534 49.5675L176.063 59.0768C168.507 49.63 157.559 43.0101 145.08 41.0839V22.0644H130.147V41.0562C124.681 41.8788 119.506 43.6027 114.777 46.0698C120.765 49.0585 126.297 53.0276 131.167 57.8979C141.196 67.9272 147.414 80.7549 149.09 94.619C156.199 97.6209 162.609 102.228 167.783 108.145C171.132 111.975 173.852 116.249 175.908 120.807C175.921 120.79 175.935 120.774 175.948 120.757L192.443 130.28L196.177 123.814L199.91 117.348L183.46 107.851C185.655 102.269 186.862 96.1951 186.862 89.8444Z" fill="#FFC107"/>
<path d="M134.476 105.921C134.567 104.716 134.614 103.501 134.614 102.273C134.614 75.8612 113.203 54.4503 86.7908 54.4503C61.5022 54.4503 40.8015 74.0795 39.0851 98.9311C17.5496 99.1588 0 116.843 0 138.431C0 160.158 17.7769 177.936 39.505 177.936H129.301C149.208 177.936 165.495 161.648 165.495 141.741C165.495 123.591 151.955 108.452 134.476 105.921Z" fill="white"/>
<path d="M54.0767 145L45.7528 115.909H52.4716L57.2869 136.122H57.5284L62.8409 115.909H68.5938L73.892 136.165H74.1477L78.9631 115.909H85.6818L77.358 145H71.3636L65.8239 125.98H65.5966L60.071 145H54.0767Z" fill="#000D81"/>
<path d="M54.0767 145L53.1153 145.275L53.3227 146H54.0767V145ZM45.7528 115.909V114.909H44.4266L44.7914 116.184L45.7528 115.909ZM52.4716 115.909L53.4444 115.677L53.2613 114.909H52.4716V115.909ZM57.2869 136.122L56.3142 136.354L56.4972 137.122H57.2869V136.122ZM57.5284 136.122V137.122H58.2995L58.4956 136.376L57.5284 136.122ZM62.8409 115.909V114.909H62.0698L61.8738 115.655L62.8409 115.909ZM68.5938 115.909L69.5612 115.656L69.3658 114.909H68.5938V115.909ZM73.892 136.165L72.9246 136.418L73.12 137.165H73.892V136.165ZM74.1477 136.165V137.165H74.9379L75.1206 136.396L74.1477 136.165ZM78.9631 115.909V114.909H78.1729L77.9902 115.678L78.9631 115.909ZM85.6818 115.909L86.6432 116.184L87.0081 114.909H85.6818V115.909ZM77.358 145V146H78.112L78.3194 145.275L77.358 145ZM71.3636 145L70.4035 145.28L70.6133 146H71.3636V145ZM65.8239 125.98L66.784 125.7L66.5742 124.98H65.8239V125.98ZM65.5966 125.98V124.98H64.8458L64.6363 125.701L65.5966 125.98ZM60.071 145V146H60.8219L61.0313 145.279L60.071 145ZM55.0381 144.725L46.7143 115.634L44.7914 116.184L53.1153 145.275L55.0381 144.725ZM45.7528 116.909H52.4716V114.909H45.7528V116.909ZM51.4988 116.141L56.3142 136.354L58.2597 135.89L53.4444 115.677L51.4988 116.141ZM57.2869 137.122H57.5284V135.122H57.2869V137.122ZM58.4956 136.376L63.8081 116.163L61.8738 115.655L56.5613 135.868L58.4956 136.376ZM62.8409 116.909H68.5938V114.909H62.8409V116.909ZM67.6263 116.162L72.9246 136.418L74.8595 135.912L69.5612 115.656L67.6263 116.162ZM73.892 137.165H74.1477V135.165H73.892V137.165ZM75.1206 136.396L79.936 116.14L77.9902 115.678L73.1748 135.933L75.1206 136.396ZM78.9631 116.909H85.6818V114.909H78.9631V116.909ZM84.7204 115.634L76.3965 144.725L78.3194 145.275L86.6432 116.184L84.7204 115.634ZM77.358 144H71.3636V146H77.358V144ZM72.3237 144.72L66.784 125.7L64.8638 126.26L70.4035 145.28L72.3237 144.72ZM65.8239 124.98H65.5966V126.98H65.8239V124.98ZM64.6363 125.701L59.1107 144.721L61.0313 145.279L66.5569 126.259L64.6363 125.701ZM60.071 144H54.0767V146H60.071V144Z" fill="#000D81"/>
<path d="M112.923 116L121.247 145.091H114.528L109.713 124.878H109.472L104.159 145.091H98.4062L93.108 124.835H92.8523L88.0369 145.091H81.3182L89.642 116H95.6364L101.176 135.02H101.403L106.929 116H112.923Z" fill="#000D81"/>
<path d="M112.923 116L113.885 115.725L113.677 115H112.923V116ZM121.247 145.091V146.091H122.573L122.209 144.816L121.247 145.091ZM114.528 145.091L113.556 145.323L113.739 146.091H114.528V145.091ZM109.713 124.878L110.686 124.646L110.503 123.878H109.713V124.878ZM109.472 124.878V123.878H108.7L108.504 124.624L109.472 124.878ZM104.159 145.091V146.091H104.93L105.126 145.345L104.159 145.091ZM98.4062 145.091L97.4388 145.344L97.6342 146.091H98.4062V145.091ZM93.108 124.835L94.0754 124.582L93.88 123.835H93.108V124.835ZM92.8523 124.835V123.835H92.0621L91.8794 124.604L92.8523 124.835ZM88.0369 145.091V146.091H88.8271L89.0098 145.322L88.0369 145.091ZM81.3182 145.091L80.3568 144.816L79.9919 146.091H81.3182V145.091ZM89.642 116V115H88.888L88.6806 115.725L89.642 116ZM95.6364 116L96.5965 115.72L96.3867 115H95.6364V116ZM101.176 135.02L100.216 135.3L100.426 136.02H101.176V135.02ZM101.403 135.02V136.02H102.154L102.364 135.299L101.403 135.02ZM106.929 116V115H106.178L105.969 115.721L106.929 116ZM111.962 116.275L120.286 145.366L122.209 144.816L113.885 115.725L111.962 116.275ZM121.247 144.091H114.528V146.091H121.247V144.091ZM115.501 144.859L110.686 124.646L108.74 125.11L113.556 145.323L115.501 144.859ZM109.713 123.878H109.472V125.878H109.713V123.878ZM108.504 124.624L103.192 144.837L105.126 145.345L110.439 125.132L108.504 124.624ZM104.159 144.091H98.4062V146.091H104.159V144.091ZM99.3737 144.838L94.0754 124.582L92.1405 125.088L97.4388 145.344L99.3737 144.838ZM93.108 123.835H92.8523V125.835H93.108V123.835ZM91.8794 124.604L87.064 144.86L89.0098 145.322L93.8252 125.067L91.8794 124.604ZM88.0369 144.091H81.3182V146.091H88.0369V144.091ZM82.2796 145.366L90.6035 116.275L88.6806 115.725L80.3568 144.816L82.2796 145.366ZM89.642 117H95.6364V115H89.642V117ZM94.6763 116.28L100.216 135.3L102.136 134.74L96.5965 115.72L94.6763 116.28ZM101.176 136.02H101.403V134.02H101.176V136.02ZM102.364 135.299L107.889 116.279L105.969 115.721L100.443 134.741L102.364 135.299ZM106.929 117H112.923V115H106.929V117Z" fill="#000D81"/>
</svg>
